<?xml version="1.0" encoding="UTF-8"?>
<svg id="Capa_1" data-name="Capa 1" xmlns="http://www.w3.org/2000/svg" viewBox="0 0 419.03 444.91">
  <defs>
    <style>
      .cls-1 {
        fill: #fff;
      }

      .cls-2 {
        fill: #111;
      }

      .cls-3 {
        opacity: .8;
      }

      .cls-4 {
        fill: #828282;
      }

      .cls-5 {
        fill: #686868;
      }
    </style>
  </defs>
  <g class="cls-3">
    <path class="cls-2" d="M368.51,107.41s19.7,66.77,0,71.77c0,0-14.77,5.01-37.75,1.93,0,0,3.28,13.82,19.7,38.39,16.41,24.57,55.81,92.14,67.3,147.42,11.49,55.28-54.17,81.51-209.29,77.61h2.1C55.45,448.43-10.21,422.2,1.28,366.92c11.49-55.28,50.89-122.85,67.3-147.42,16.41-24.57,19.7-38.39,19.7-38.39-22.98,3.07-37.75-1.93-37.75-1.93-19.7-5.01,0-71.77,0-71.77,0,0,163.23,26.11,317.99,0Z"/>
  </g>
  <g>
    <path class="cls-5" d="M357.82,88.98s18.43,66.77,0,71.77c0,0-13.82,5.01-35.32,1.93,0,0,3.07,13.82,18.43,38.39s52.21,92.14,62.96,147.42c10.75,55.28-50.67,81.51-195.79,77.61h1.96c-145.11,3.9-206.54-22.33-195.79-77.61,10.75-55.28,47.6-122.85,62.96-147.42,15.36-24.57,18.43-38.39,18.43-38.39-21.5,3.07-35.32-1.93-35.32-1.93-18.43-5.01,0-71.77,0-71.77,0,0,152.7,26.11,297.48,0Z"/>
    <path d="M182.74,428.48c-86.54,0-139.2-12.4-160.66-37.73-9.75-11.5-13.03-25.85-9.77-42.64,10.48-53.89,45.94-120.44,63.23-148.09,11.05-17.68,15.68-29.8,17.35-34.96-19.41,2.19-31.92-1.97-33.15-2.4-2.63-.74-4.75-2.5-6.31-5.23-9.36-16.43,4.39-66.85,4.98-68.99,.27-.99,1.25-1.61,2.26-1.44,1.52,.26,154.03,25.74,296.78,0,1.01-.18,2.01,.44,2.28,1.44,.59,2.14,14.35,52.56,4.98,68.99-1.56,2.73-3.68,4.49-6.31,5.23-1.22,.43-13.74,4.59-33.15,2.4,1.67,5.16,6.3,17.27,17.35,34.96,17.29,27.66,52.75,94.21,63.23,148.09,3.26,16.79-.02,31.14-9.77,42.64-23.55,27.8-84.72,40.03-187,37.38-9.1,.24-17.89,.36-26.34,.36Zm27.82-4.32c49.66,1.23,90.13-1.18,120.31-7.16,30.09-5.96,51-15.66,62.16-28.84,9.05-10.68,11.96-23.53,8.89-39.29-10.37-53.31-45.54-119.29-62.69-146.74-15.36-24.58-18.56-38.44-18.68-39.02-.14-.64,.04-1.31,.48-1.79,.45-.48,1.1-.71,1.75-.62,20.68,2.95,34.22-1.79,34.36-1.84,.05-.02,.1-.03,.15-.05,1.62-.44,2.92-1.54,3.96-3.37,7.64-13.39-2.54-55.08-4.9-64.18-134.51,23.84-276.94,2.76-294.54-.03-2.34,9.04-12.55,50.8-4.9,64.21,1.04,1.83,2.34,2.93,3.96,3.37,.05,.01,.1,.03,.16,.05,.13,.05,13.67,4.79,34.35,1.83,.65-.09,1.3,.14,1.75,.62,.45,.48,.63,1.15,.48,1.79-.13,.58-3.32,14.44-18.68,39.02-17.15,27.44-52.33,93.43-62.69,146.74-3.06,15.76-.16,28.61,8.89,39.29,11.16,13.17,32.07,22.88,62.16,28.84,30.18,5.98,70.64,8.39,120.31,7.16,.16-.04,.33-.06,.5-.06h1.96c.17,0,.34,.02,.5,.06Z"/>
  </g>
  <path class="cls-4" d="M233.1,117.39c10.75-15.36,39.93,9.21,39.93,9.21,70.64,39.93,70.64-19.96,70.64-19.96,12.28-13.82,13.82,33.78,13.82,33.78,6.14,10.75-32.25,16.89-43,10.75s-19.96,0-19.96,0c-9.21,19.96,12.28,41.46,12.28,41.46,27.64,21.5,55.28,69.1,58.35,124.38,3.07,55.28-101.35,61.42-101.35,61.42l-122.85-1.54s-99.81-10.75-84.46-69.1c15.36-58.35,16.89-79.85,53.75-112.1,36.85-32.25,19.96-55.28-12.28-44.53-32.25,10.75-33.78-18.43-33.78-18.43,0,0,4.61-41.46,13.82-26.11,0,0,3.07,59.89,70.64,19.96,0,0,27.64-19.96,41.46-7.68l43-1.54Z"/>
  <g>
    <path class="cls-1" d="M161.91,200.62c-23.59-3.32-18.61-28.95-18.61-28.95,0,0-8.29,3.16-9.21,18.82s10.2,19.09,10.2,19.09l17.63-8.95Z"/>
    <path d="M144.29,210.57c-.1,0-.2-.01-.29-.04-.12-.04-11.86-3.84-10.9-20.1,.95-16.12,9.49-19.56,9.86-19.69,.34-.13,.72-.06,1,.17,.28,.23,.41,.6,.34,.96-.02,.12-2.19,11.79,3.66,19.98,3.06,4.29,7.81,6.91,14.1,7.79,.43,.06,.78,.4,.85,.83,.07,.43-.14,.86-.53,1.06l-17.63,8.95c-.14,.07-.3,.11-.45,.11Zm-2.26-36.94c-2.31,1.83-6.32,6.47-6.94,16.91-.78,13.24,7.27,17.2,9.13,17.94l14.63-7.43c-5.43-1.31-9.64-4.01-12.53-8.07-4.83-6.77-4.68-15.39-4.29-19.35Z"/>
  </g>
  <g>
    <path class="cls-1" d="M262.04,200.62c23.59-3.32,18.61-28.95,18.61-28.95,0,0,8.29,3.16,9.21,18.82,.92,15.66-10.2,19.09-10.2,19.09l-17.63-8.95Z"/>
    <path d="M279.67,210.57c-.16,0-.31-.04-.45-.11l-17.63-8.95c-.39-.2-.61-.62-.53-1.06,.07-.43,.42-.77,.85-.83,6.3-.89,11.05-3.51,14.11-7.8,5.85-8.21,3.68-19.85,3.66-19.97-.07-.36,.06-.72,.34-.96,.28-.23,.66-.3,1-.17,.36,.14,8.91,3.57,9.86,19.69,.96,16.26-10.78,20.06-10.9,20.1-.1,.03-.2,.04-.29,.04Zm-14.56-9.51l14.63,7.43c1.85-.73,9.91-4.7,9.13-17.94-.61-10.44-4.63-15.08-6.94-16.91,.39,3.97,.54,12.59-4.29,19.35-2.89,4.05-7.1,6.76-12.53,8.07Z"/>
  </g>
  <path d="M341.04,284.14l-55.4-61.56-.1-.15c-.14-.21-15.24-21.84-56.18-20.39h-40.01c-41.01-1.47-56.13,20.17-56.28,20.39l-.22,.28-55.28,61.42-3.72-3.35,55.17-61.3c1.61-2.3,17.94-23.97,60.41-22.45h39.84c42.38-1.53,58.71,20.15,60.32,22.45l55.17,61.3-3.72,3.35Z"/>
  <path d="M83.38,297.25c-.37,0-.75-.08-1.11-.26-.24-.12-5.93-3.03-8.25-10.32-2.14-6.7-.76-14.71,4.09-23.81,.65-1.22,2.16-1.68,3.38-1.03,1.22,.65,1.68,2.16,1.03,3.38-4.16,7.81-5.43,14.48-3.77,19.83,1.64,5.28,5.6,7.39,5.77,7.48,1.22,.63,1.71,2.13,1.08,3.36-.44,.87-1.32,1.37-2.23,1.37Z"/>
  <path d="M335.06,297.25c-.92,0-1.8-.51-2.24-1.38-.62-1.23-.12-2.72,1.1-3.35,.2-.1,4.13-2.21,5.77-7.48,1.66-5.35,.39-12.02-3.77-19.83-.65-1.22-.19-2.73,1.03-3.38,1.22-.65,2.73-.19,3.38,1.03,4.85,9.09,6.23,17.1,4.09,23.81-2.32,7.29-8.01,10.2-8.25,10.32-.36,.18-.74,.26-1.12,.26Z"/>
  <g>
    <path class="cls-1" d="M91.83,95.89l59.89,7.68s-6.91,16.12-26.87,14.59c-19.96-1.54-33.02-22.27-33.02-22.27Z"/>
    <path d="M127.46,119.76c-.89,0-1.79-.03-2.73-.11-20.48-1.57-33.62-22.09-34.17-22.96-.31-.49-.31-1.12,0-1.61s.88-.76,1.46-.68l59.89,7.68c.47,.06,.88,.33,1.11,.74,.23,.41,.26,.9,.08,1.33-.07,.16-6.91,15.6-25.63,15.6Zm-32.41-21.94c4.27,5.55,15.24,17.72,29.9,18.84,14.7,1.13,21.95-7.92,24.4-11.88l-54.3-6.96Z"/>
  </g>
  <g>
    <path class="cls-1" d="M331.38,95.89l-59.89,7.68s6.91,16.12,26.87,14.59c19.96-1.54,33.02-22.27,33.02-22.27Z"/>
    <path d="M295.75,119.76c-18.72,0-25.56-15.44-25.63-15.6-.19-.43-.16-.93,.08-1.33,.23-.41,.65-.68,1.11-.74l59.89-7.68c.57-.08,1.14,.19,1.46,.68,.31,.49,.31,1.12,0,1.61-.55,.87-13.69,21.39-34.17,22.96-.94,.07-1.85,.11-2.73,.11Zm-21.92-14.98c2.4,3.98,9.56,13.03,24.42,11.88,14.69-1.13,25.64-13.3,29.91-18.84l-54.33,6.96Z"/>
  </g>
  <g>
    <circle cx="299.13" cy="105.1" r="5.37"/>
    <path d="M299.13,110.98c-3.24,0-5.88-2.64-5.88-5.87s2.64-5.87,5.88-5.87,5.87,2.64,5.87,5.87-2.63,5.87-5.87,5.87Zm0-10.75c-2.69,0-4.88,2.19-4.88,4.87s2.19,4.87,4.88,4.87,4.87-2.19,4.87-4.87-2.19-4.87-4.87-4.87Z"/>
  </g>
  <g>
    <circle cx="124.84" cy="105.87" r="5.37"/>
    <path d="M124.84,111.74c-3.24,0-5.87-2.64-5.87-5.87s2.64-5.87,5.87-5.87,5.87,2.64,5.87,5.87-2.64,5.87-5.87,5.87Zm0-10.75c-2.69,0-4.87,2.19-4.87,4.87s2.19,4.87,4.87,4.87,4.87-2.19,4.87-4.87-2.19-4.87-4.87-4.87Z"/>
  </g>
  <g>
    <ellipse cx="167.07" cy="137.35" rx="10.75" ry="6.14" transform="translate(-32.97 55.12) rotate(-17.08)"/>
    <path d="M163.8,146.02c-1.11,0-2.17-.11-3.16-.33-3.01-.68-5.06-2.31-5.76-4.59-.7-2.28,.07-4.78,2.19-7.03,1.83-1.96,4.54-3.55,7.61-4.49,3.07-.94,6.2-1.14,8.82-.55,3.01,.68,5.06,2.31,5.76,4.59,.7,2.28-.08,4.78-2.19,7.03-1.83,1.96-4.54,3.55-7.61,4.49-1.91,.59-3.84,.88-5.66,.88Zm6.55-13.33c-1.42,0-2.98,.24-4.5,.71-2.38,.73-4.52,1.97-5.87,3.41-1.07,1.14-1.54,2.28-1.28,3.12,.26,.84,1.28,1.52,2.81,1.86,1.92,.43,4.39,.26,6.77-.47,2.38-.73,4.52-1.97,5.87-3.41,1.07-1.14,1.54-2.28,1.28-3.12-.26-.84-1.28-1.52-2.81-1.86-.69-.16-1.46-.23-2.27-.23Z"/>
  </g>
  <g>
    <ellipse cx="254.6" cy="137.35" rx="6.14" ry="10.75" transform="translate(48.54 340.39) rotate(-72.92)"/>
    <path d="M257.87,146.02c-1.82,0-3.75-.3-5.66-.88-3.07-.94-5.77-2.54-7.61-4.49-2.11-2.25-2.89-4.75-2.19-7.03,.7-2.28,2.75-3.91,5.76-4.59,2.61-.59,5.75-.39,8.82,.55,3.07,.94,5.77,2.54,7.61,4.49,2.11,2.25,2.89,4.75,2.19,7.03-.7,2.28-2.75,3.91-5.76,4.59-.99,.22-2.05,.33-3.16,.33Zm-6.55-13.33c-.81,0-1.57,.08-2.27,.23-1.53,.34-2.55,1.02-2.81,1.86-.26,.84,.21,1.98,1.28,3.12,1.35,1.43,3.48,2.68,5.87,3.41,2.38,.73,4.85,.9,6.77,.47,1.53-.34,2.55-1.02,2.81-1.86,.26-.84-.21-1.98-1.28-3.12-1.35-1.43-3.48-2.68-5.87-3.41-1.52-.47-3.07-.71-4.5-.71Z"/>
  </g>
  <path d="M223.27,150.1h-25.49c-.4,0-.79-.12-1.12-.35l-20.44-13.91c-.91-.62-1.15-1.87-.53-2.78,.62-.91,1.86-1.15,2.78-.53l19.93,13.56h24.27l20.55-13.57c.92-.61,2.16-.35,2.77,.57,.61,.92,.36,2.16-.57,2.77l-21.05,13.91c-.33,.22-.71,.33-1.1,.33Z"/>
  <path d="M276.1,343.58c-.72,0-1.42-.39-1.78-1.08-.19-.37-19.8-37.16-56.42-34.25-.05,0-.11,0-.16,0h-15.36c-.05,0-.11,0-.16,0-36.57-2.92-56.23,33.88-56.42,34.25-.51,.98-1.72,1.36-2.7,.85-.98-.51-1.36-1.72-.85-2.7,.21-.39,21.01-39.47,60.21-36.4h15.2c39.2-3.07,60,36,60.21,36.4,.51,.98,.13,2.19-.85,2.7-.29,.15-.61,.23-.92,.23Z"/>
  <path d="M110.91,138.43c-22.8,0-28.44-19.7-28.49-19.91-.15-.53,.17-1.08,.7-1.23,.53-.15,1.08,.17,1.23,.7,.22,.81,5.73,19.81,29.04,18.36,.55-.03,1.03,.38,1.06,.94,.03,.55-.38,1.03-.94,1.06-.89,.06-1.76,.08-2.6,.08Z"/>
  <path d="M310.12,138.43c-.84,0-1.71-.03-2.6-.08-.55-.03-.97-.51-.94-1.06,.03-.55,.51-.97,1.06-.94,23.38,1.47,28.99-18.16,29.04-18.36,.15-.53,.7-.85,1.23-.7,.53,.15,.85,.69,.7,1.23-.06,.21-5.7,19.91-28.49,19.91Z"/>
  <path d="M113.45,187.32c-.41,0-.82-.12-1.17-.38-.9-.65-1.1-1.9-.45-2.79,11.58-16,10.25-21,9.14-22.41-2.99-3.8-16.15-.65-24.54,2.8-1.02,.42-2.19-.07-2.61-1.09-.42-1.02,.07-2.19,1.09-2.61,2.35-.97,23.17-9.23,29.2-1.57,3.79,4.81,.92,13.46-9.04,27.23-.39,.54-1,.83-1.62,.83Z"/>
  <path d="M307.58,189.17c-.69,0-1.36-.35-1.73-.99-9.78-16.68-12.26-26.57-7.81-31.13,6.14-6.3,22.27,2.14,25.44,3.89,.97,.54,1.32,1.75,.78,2.72-.53,.97-1.75,1.32-2.72,.78-6.78-3.75-17.66-7.65-20.64-4.6-1.32,1.35-3.14,6.62,8.4,26.31,.56,.95,.24,2.18-.71,2.74-.32,.19-.67,.27-1.01,.27Z"/>
  <path d="M240.69,232.76c-.2,0-.41-.06-.58-.19-29.86-21.61-61.87-.2-62.19,.02-.46,.31-1.08,.2-1.39-.26-.31-.46-.2-1.08,.26-1.39,.33-.23,33.48-22.44,64.49,.02,.45,.32,.55,.95,.22,1.4-.2,.27-.5,.41-.81,.41Z"/>
  <path d="M209.22,188.19c-8.99,0-15.12-2.08-18.25-6.18-3.36-4.4-1.89-9.42-1.82-9.63,.16-.53,.72-.82,1.25-.67,.53,.16,.83,.72,.67,1.25-.03,.09-1.21,4.3,1.52,7.86,2.87,3.74,9.16,5.58,18.23,5.35,9.06-.24,15.25-2.42,17.87-6.29,2.51-3.69,1.04-7.83,1.02-7.87-.19-.52,.08-1.09,.59-1.28,.51-.19,1.09,.07,1.28,.59,.08,.21,1.85,5.11-1.22,9.66-3.04,4.51-9.6,6.93-19.5,7.19-.56,.02-1.11,.02-1.64,.02Z"/>
  <g>
    <path class="cls-2" d="M198.55,98.19c-32.25,6.14-24.57-55.28-24.57-55.28,0,0,34.7-19.96,69.56,0,0,0,6.48,54.61-16.95,55.71l-28.04-.43Z"/>
    <path class="cls-2" d="M176.29,42.14s0-30.71-52.21-35.32c0,0-77.09-15.36-86.91,0S-1.84,62.11,33.48,68.25c0,0,38.39,19.96,133.6,26.11,0,0,18.43,7.68,9.21-52.21Z"/>
    <path class="cls-2" d="M243.27,42.14s0-30.71,52.21-35.32c0,0,77.09-15.36,86.91,0,9.83,15.36,39,55.28,3.69,61.42,0,0-38.39,19.96-133.6,26.11,0,0-18.43,7.68-9.21-52.21Z"/>
    <g>
      <path class="cls-5" d="M176.29,52.89s0-30.71-52.21-35.32c0,0-77.09-15.36-86.91,0-9.83,15.36-39,55.28-3.69,61.42,0,0,38.39,19.96,133.6,26.11,0,0,18.43,7.68,9.21-52.21Z"/>
      <path d="M169,106.92c-1.03,0-1.83-.21-2.23-.33-90.66-5.87-130.5-24.54-133.77-26.15-8.56-1.53-14.14-5.17-16.58-10.82-6.03-13.89,8.46-36.01,17.12-49.23,.86-1.32,1.66-2.53,2.36-3.62,10.06-15.71,80.02-2.34,88.39-.68,27.45,2.44,40.52,12.19,46.65,19.94,6.39,8.08,6.82,15.63,6.85,16.74,4.49,29.23,3.16,46.87-3.95,52.44-1.74,1.36-3.48,1.72-4.83,1.72ZM63.83,12.26c-12.47,0-22.51,1.59-25.41,6.13-.7,1.1-1.5,2.32-2.38,3.65-7.78,11.88-22.26,33.98-16.88,46.39,2.04,4.71,6.94,7.77,14.56,9.09,.15,.03,.3,.08,.43,.15,.38,.2,39.32,19.89,133,25.94,.17,.01,.33,.05,.48,.11,.07,.03,2.21,.83,4.39-.92,3.46-2.78,8.42-12.92,2.76-49.67-.01-.07-.02-.15-.02-.22h0c0-.07-.12-7.41-6.34-15.17-8.31-10.37-23.7-16.82-44.51-18.66-.05,0-.11-.01-.16-.02-13.09-2.61-39.73-6.79-59.95-6.79Zm113.95,40.64h0Z"/>
    </g>
    <g>
      <path class="cls-5" d="M243.27,52.89s0-30.71,52.21-35.32c0,0,77.09-15.36,86.91,0,9.83,15.36,39,55.28,3.69,61.42,0,0-38.39,19.96-133.6,26.11,0,0-18.43,7.68-9.21-52.21Z"/>
      <path d="M250.56,106.92c-1.35,0-3.1-.36-4.83-1.72-7.11-5.57-8.44-23.21-3.95-52.44,.03-1.1,.46-8.65,6.85-16.74,6.13-7.75,19.2-17.5,46.65-19.94,8.37-1.66,78.33-15.03,88.39,.68,.7,1.09,1.5,2.31,2.36,3.63,8.66,13.22,23.15,35.34,17.12,49.23-2.45,5.65-8.03,9.28-16.58,10.82-3.27,1.6-43.11,20.28-133.77,26.15-.4,.13-1.2,.33-2.22,.33ZM355.72,12.26c-20.22,0-46.86,4.18-59.95,6.79-.05,.01-.11,.02-.16,.02-50.26,4.44-50.84,33.53-50.84,33.82,0,.08,0,.15-.02,.23-5.65,36.75-.69,46.9,2.76,49.67,2.18,1.75,4.31,.95,4.41,.92,.14-.06,.31-.1,.46-.11,93.69-6.04,132.62-25.74,133-25.94,.14-.07,.28-.12,.43-.15,7.62-1.33,12.52-4.38,14.56-9.09,5.38-12.41-9.1-34.51-16.88-46.39-.87-1.33-1.67-2.55-2.38-3.65-2.9-4.53-12.94-6.13-25.41-6.13Zm-112.45,40.64h0Z"/>
    </g>
    <path class="cls-4" d="M253.62,55.3s-.56-22.93,43.87-27.46c0,0,65.45-13.08,74.12-1.82,8.66,11.26,34.28,40.45,4.27,45.78,0,0-32.37,15.71-113.45,22.29,0,0-15.57,6.12-8.82-38.78Z"/>
    <path class="cls-4" d="M165.7,55.3s.56-22.93-43.87-27.46c0,0-65.45-13.08-74.12-1.82-8.66,11.26-34.28,40.45-4.27,45.78,0,0,32.37,15.71,113.45,22.29,0,0,15.57,6.12,8.82-38.78Z"/>
    <g>
      <path class="cls-5" d="M198.55,108.94c-32.25,6.14-24.57-55.28-24.57-55.28,0,0,34.7-19.96,69.56,0,0,0,6.48,54.61-16.95,55.71l-28.04-.43Z"/>
      <path d="M194.21,110.87c-4.74,0-8.81-1.57-12.13-4.69-14.31-13.42-9.78-51.11-9.58-52.71,.06-.47,.33-.88,.74-1.11,.35-.2,35.86-20.16,71.06,0,.41,.24,.69,.65,.74,1.12,.18,1.54,4.34,37.91-7.51,51.9-2.91,3.44-6.56,5.28-10.86,5.48l-27.98-.43c-1.55,.29-3.04,.43-4.47,.43Zm-18.82-56.26c-.57,5.41-3.41,38,8.74,49.39,3.68,3.45,8.31,4.58,14.14,3.47,.1-.02,.21-.03,.3-.03l28.04,.43c3.38-.16,6.23-1.61,8.61-4.42,10.14-11.97,7.44-43.58,6.9-48.86-30.88-17.22-61.88-2.5-66.75,.02Z"/>
    </g>
    <path class="cls-4" d="M213.91,102.8c19.96,1.54,21.53-7.77,21.53-7.77-4.58-15.45-.03-38.3-.03-38.3-24.57-12.28-52.21,0-52.21,0,0,0,5.84,18.92,1.38,39.4,0,0,3.22,9.74,17.05,6.66h12.28Z"/>
  </g>
</svg>